<svg 
  height='50px'
  width='50px'  
  fill="#000000"
  version="1.1"
  x="0px"
  y="0px"
  viewBox="0 0 100 100">
  <g transform="translate(0,-952.36218)">
  <path style="text-indent:0;text-transform:none;direction:
  ltr;block-progression:tb;baseline-shift:baseline;color:
  #000000;enable-background:accumulate;" 
  d="m 50,959.36218 c -13.435897,0 -24.168165,4.4961 -31.3125,13.625
   -7.144335,9.1289 -10.6874998,22.6083 -10.6874998,40.37502 0.0064
   ,0.7808 0.515142,1.5345 1.236875,1.8325 0.721733,0.298 1.6140568,
   0.1226 2.1693748,-0.4263 l 1.6875,-1.6874 c 1.657336,16.5977 
   16.436938,32.2812 34.90625,32.2812 8.89216,0 16.66722,-2.6586 22.5625,
   -7.75 4.2295,-3.6528 7.43689,-8.5425 9.5,-14.4688 0.85121,0.4439 2.01126,
   0.161 2.5625,-0.625 4.96858,-6.956 9.375,-12.6714 9.375,-24.15622 0,-8.0475
    -3.73083,-13.6168 -8.4375,-15.4375 -3.03845,-6.9096 -6.89787,-12.7533 
    -12.21875,-16.9063 -5.48482,-4.2807 -12.49081,-6.6562 -21.34375,-6.6562 z m 
    0,4 c 8.14706,0 14.14107,2.0933 18.90625,5.8125 4.76518,3.7192 8.3315,9.159 
    11.25,15.9687 0.23904,0.5636 0.7508,1.004 1.34375,1.1563 2.78257,0.6956 
    6.5,4.7292 6.5,12.0625 0,8.48562 -2.38932,12.93782 -5.9375,18.03122 -0.63845
    ,-3.3674 -1.40164,-6.9655 -2.0938,-10.4374 -0.2455,-1.272 -1.93563,-2.0038 
    -3.03125,-1.3126 -1.91383,1.1825 -3.47447,2.153 -5.3125,3.0626 -0.48344,
    -2.8282 -0.625,-5.5394 -0.625,-10.34382 0.0172,-1.4286 -1.85202,-2.4777 
    -3.0625,-1.7188 -7.04086,4.40062 -12.4559,6.33582 -21.375,8.12502 l 1.40625
    ,-7.03122 c 0.14556,-0.7274 -0.1538,-1.5256 -0.74177,-1.9779 -0.58798,
    -0.4523 -1.43627,-0.5369 -2.10198,-0.2096 l -20.59375,9.84372 -0.5625,
    -3.375 c -0.120796,-0.717 -0.664124,-1.34632 -1.355787,-1.57052 -0.691662,
    -0.2241 -1.500856,-0.033 -2.019213,0.4768 l -8.3125,8.31252 c 0.652863,
    -14.51412 3.850686,-25.52292 9.53125,-32.78122 6.355665,-8.1213 15.623397,
    -12.0938 28.1875,-12.0938 z m -6.75,36.5312 -1.21875,6.06262 c -0.264595,
    1.2752 1.030719,2.6055 2.3125,2.375 9.6938,-1.7627 15.87936,-3.7508 22.71875,
    -7.5938 0.0409,3.6261 0.2205,6.574 0.9375,9.625 0.14106,0.9023 0.57629,1.4935
     1.49995,2.0315 0.91405,0.2544 1.8094,-0.1218 2.5625,-0.4065 1.62768,-0.7659 
     3.28528,-1.7399 4.53125,-2.4688 l 1.28125,6.4063 c -1.53165,8.1815 -5.01407
     ,14.4041 -9.9375,18.6563 -5.10472,4.4086 -11.82966,6.7812 -19.9375,6.7812 
     -17.465723,0 -31.459753,-16.6431 -31,-32.1875 l 3.65625,-3.6563 0.375,2.1563
      c 0.20513,1.2196 1.73055,2.0074 2.84375,1.4687 z m -9.3125,15.31262 c 
      -1.672583,0.068 -3.444652,0.6513 -4.84375,1.3437 -0.940719,0.4746 -1.364896
      ,1.7622 -0.890415,2.703 0.47448,0.9408 1.762099,1.3651 2.702915,0.8907 
      0.880743,-0.4403 1.925324,-0.852 2.78125,-0.9374 0.855926,-0.086 1.377655
      ,0.034 1.90625,0.5624 0.739036,0.7608 2.11101,0.767 2.856856,0.013 0.745845
      ,-0.7541 0.724544,-2.1259 -0.04436,-2.8565 -1.287479,-1.2875 -2.968579,
      -1.7359 -4.46875,-1.7187 z m 23.65625,1.7187 c -0.7689,0.7306 -0.7902,
      2.1024 -0.0444,2.8565 0.74585,0.7542 2.11782,0.748 2.85686,-0.013 0.5286
      ,-0.5284 1.05032,-0.6481 1.90625,-0.5624 0.85593,0.085 1.90051,0.4972
       2.78125,0.9374 0.94082,0.4744 2.22843,0.05 2.70292,-0.8907 0.47448,-0.9408 0.0503,-2.2284 -0.89042,-2.703 -1.11926,-0.5596 -2.57468,-1.1481 -4.21875,-1.3125 -1.89882,-0.041 -3.98785,0.6205 -5.09375,1.6875 z m -16.509222,10.744 c -0.248427,0.7191 -0.04102,1.5743 0.509222,2.0997 1.589256,1.5894 3.7753,2.0938 5.90625,2.0938 2.13095,0 4.31699,-0.5044 5.90625,-2.0938 0.7689,-0.7306 0.7902,-2.1024 0.0444,-2.8565 -0.74585,-0.7542 -2.11782,-0.748 -2.85686,0.013 -0.41074,0.4107 -1.7247,0.9375 -3.09375,0.9375 -1.36905,0 -2.683006,-0.5268 -3.09375,-0.9375 -1.441473,-0.9981 -2.745578,-0.5731 -3.321762,0.7438 z" fill="#000000" fill-opacity="1" stroke="none" marker="none" 
  visibility="visible" display="inline" overflow="visible"></path></g></svg>